HIERARCHY
ROOT Hips
{
	OFFSET 0.000000 0.000000 0.000000 
	CHANNELS 6 Xposition Yposition Zposition Yrotation Zrotation Xrotation 
	JOINT Lumbar
	{
		OFFSET 0.000000 0.000000 0.000000 
		CHANNELS 3 Zrotation Xrotation Yrotation
		JOINT Neck
		{
			OFFSET 0.000000 0.445665 0.000000 
			CHANNELS 3 Zrotation Xrotation Yrotation
			End Site
			{
				OFFSET 0.000000 0.227535 0.000000 
			}
		}
		JOINT RightShoulder
		{
			OFFSET 0.019635 0.377685 0.194865 
			CHANNELS 3 Zrotation Xrotation Yrotation
			JOINT RightElbow
			{
				OFFSET 0.000000 -0.243375 0.000000 
				CHANNELS 2 Zrotation Yrotation
				JOINT RightWrist
				{
					OFFSET 0.000000 -0.264825 0.000000 
					CHANNELS 2 Zrotation Xrotation
					End Site
					{
						OFFSET 0.006600 -0.176220 0.000990 
					}
				}
			}
		}
		JOINT LeftShoulder
		{
			OFFSET 0.019635 0.377685 -0.194865 
			CHANNELS 3 Zrotation Xrotation Yrotation
			JOINT LeftElbow
			{
				OFFSET 0.000000 -0.243375 0.000000 
				CHANNELS 2 Zrotation Yrotation
				JOINT LeftWrist
				{
					OFFSET 0.000000 -0.264825 0.000000 
					CHANNELS 2 Zrotation Xrotation
					End Site
					{
						OFFSET 0.006600 -0.176220 -0.000990 
					}
				}
			}
		}
	}
	JOINT RightHip
	{
		OFFSET 0.052140 -0.069960 0.075570 
		CHANNELS 3 Zrotation Xrotation Yrotation
		JOINT RightKnee
		{
			OFFSET 0.000000 -0.402270 0.000000 
			CHANNELS 1 Zrotation
			JOINT RightAnkle
			{
				OFFSET 0.000000 -0.404085 0.000000 
				CHANNELS 3 Zrotation Xrotation Yrotation
				End Site
				{
					OFFSET 0.204105 -0.089430 0.008415 
				}
			}
		}
	}
	JOINT LeftHip
	{
		OFFSET 0.052140 -0.069960 -0.075570 
		CHANNELS 3 Zrotation Xrotation Yrotation
		JOINT LeftKnee
		{
			OFFSET 0.000000 -0.402270 0.000000 
			CHANNELS 1 Zrotation
			JOINT LeftAnkle
			{
				OFFSET 0.000000 -0.404085 0.000000 
				CHANNELS 3 Zrotation Xrotation Yrotation
				End Site
				{
					OFFSET 0.204105 -0.089430 -0.008415 
				}
			}
		}
	}
}
MOTION
Frames: 25
Frame Time: 0.02
0.00039 8e-05 -0.00022 24.1461 -28.94886 -7.62098 49.06228 3.0033 -3.34033 -16.49681 -2.0418 -0.15991 34.9963 -107.21333 64.17156 9.63218 84.48172 8.08836 -2.72296 7.97876 107.33876 -64.13576 8.3129 -87.51309 3.1752 4.50065 43.25773 -3.93415 -2.48808 -21.61922 -7.11744 -3.78651 -2.64819 48.58279 9.63062 -0.82873 -26.96861 -7.27714 2.90854 2.18058
0.00035 7e-05 -0.00021 24.14514 -28.93258 -7.616 49.04435 3.00278 -3.32759 -16.48682 -2.03296 -0.16033 34.98686 -107.2376 64.17149 9.62424 84.48499 8.02515 -2.69108 8.03792 107.37765 -64.13591 8.3245 -87.51502 3.16953 4.45547 43.24693 -3.95418 -2.56769 -21.62557 -7.11382 -3.77506 -2.64139 48.56896 9.63217 -0.80469 -26.9726 -7.27723 2.90699 2.17927
0.0003 5e-05 -0.0002 24.14421 -28.91635 -7.61102 49.02644 3.00224 -3.31489 -16.47686 -2.02414 -0.16076 34.97765 -107.26187 64.17139 9.6165 84.48822 7.96192 -2.65933 8.09703 107.41643 -64.13593 8.33606 -87.51694 3.16383 4.41039 43.23617 -3.97416 -2.64711 -21.63192 -7.1102 -3.76364 -2.63462 48.55521 9.6337 -0.78079 -26.97658 -7.27732 2.90545 2.17797
0.00026 4e-05 -0.00019 24.14325 -28.90012 -7.60605 49.00856 3.00172 -3.30219 -16.4669 -2.01532 -0.16119 34.96823 -107.28607 64.17135 9.60858 84.49148 7.89889 -2.62755 8.15599 107.45521 -64.1362 8.34762 -87.51887 3.15816 4.36535 43.2254 -3.99411 -2.72647 -21.63826 -7.10659 -3.75223 -2.62785 48.54143 9.63525 -0.75684 -26.98056 -7.27741 2.90391 2.17666
0.00022 2e-05 -0.00019 24.14227 -28.88386 -7.60106 48.99068 3.00121 -3.28945 -16.4569 -2.00647 -0.16162 34.9586 -107.31027 64.17126 9.60049 84.49477 7.83589 -2.59562 8.21505 107.49407 -64.13628 8.3592 -87.5208 3.15257 4.32018 43.21458 -4.01412 -2.80606 -21.6446 -7.10296 -3.74077 -2.62106 48.52758 9.63684 -0.73274 -26.98454 -7.27749 2.90235 2.17534
0.00017 1e-05 -0.00018 24.14144 -28.86771 -7.59612 48.97271 3.00063 -3.27685 -16.44703 -1.99771 -0.16204 34.95034 -107.33466 64.17106 9.59354 84.49787 7.77214 -2.56424 8.27431 107.53266 -64.13598 8.37074 -87.5227 3.14663 4.27527 43.20395 -4.03406 -2.88512 -21.65096 -7.09937 -3.72943 -2.61433 48.51401 9.63823 -0.70924 -26.98854 -7.27759 2.90084 2.17405
0.00013 -1e-05 -0.00017 24.14029 -28.85133 -7.59109 48.95493 3.00019 -3.26398 -16.43689 -1.98878 -0.16247 34.93906 -107.35862 64.17136 9.58407 84.50136 7.71017 -2.5318 8.33284 107.57183 -64.13741 8.38234 -87.52466 3.14136 4.22999 43.19293 -4.05406 -2.96503 -21.65727 -7.09571 -3.7179 -2.60748 48.49988 9.64002 -0.68455 -26.99249 -7.27766 2.89925 2.17272
8e-05 -2e-05 -0.00016 24.13946 -28.83518 -7.58614 48.93697 2.99961 -3.25137 -16.42703 -1.98002 -0.1629 34.93108 -107.38301 64.17067 9.57734 84.50449 7.64619 -2.50035 8.39254 107.61033 -64.13548 8.39392 -87.52656 3.13553 4.18488 43.1823 -4.07408 -3.04439 -21.66363 -7.09211 -3.70651 -2.60073 48.48631 9.64142 -0.66098 -26.99649 -7.27776 2.89772 2.17142
4e-05 -4e-05 -0.00015 24.13895 -28.81923 -7.58129 48.91883 2.99891 -3.23902 -16.41742 -1.9714 -0.16333 34.92511 -107.40782 64.17089 9.57233 84.50719 7.58114 -2.47002 8.45173 107.64854 -64.13642 8.40533 -87.52843 3.1288 4.14063 43.17204 -4.09385 -3.12222 -21.67003 -7.08861 -3.69539 -2.59414 48.47327 9.64246 -0.6387 -27.00051 -7.27787 2.8963 2.17018
1e-05 -5e-05 -0.00014 24.13637 -28.8019 -7.57589 48.90183 2.99907 -3.22499 -16.40607 -1.96178 -0.16375 34.90149 -107.42989 64.17226 9.55252 84.51237 7.52641 -2.43301 8.50802 107.69003 -64.14181 8.41727 -87.53058 3.1266 4.09339 43.15935 -4.11423 -3.20627 -21.67616 -7.0846 -3.68301 -2.58677 48.4567 9.64592 -0.60876 -27.00434 -7.27786 2.89434 2.16863
-7e-05 -7e-05 -0.00013 24.13831 -28.78761 -7.57162 48.88237 2.99729 -3.21463 -16.39858 -1.95437 -0.16418 34.91897 -107.45794 64.1671 9.56707 84.51232 7.44728 -2.41022 8.57415 107.72356 -64.12445 8.42838 -87.53209 3.11523 4.0512 43.15195 -4.13384 -3.27884 -21.68289 -7.08163 -3.67309 -2.58094 48.44787 9.64405 -0.59514 -27.00862 -7.27812 2.89349 2.16774
-0.00026 -0.0001 -0.00011 24.15146 -28.78073 -7.57081 48.85638 2.99107 -3.21328 -16.4005 -1.95231 -0.16463 35.02276 -107.50066 64.17579 9.65316 84.49791 7.32302 -2.42515 8.64005 107.743 -64.15022 8.43625 -87.53244 3.07534 4.03284 43.1579 -4.14715 -3.30547 -21.69101 -7.08197 -3.67163 -2.58043 48.45807 9.62929 -0.62523 -27.01368 -7.27908 2.89586 2.16868
-0.00051 -0.00015 -0.0001 24.16937 -28.77711 -7.57107 48.82788 2.98272 -3.21577 -16.4066 -1.95255 -0.16508 35.17553 -107.54945 64.17092 9.77941 84.47829 7.17101 -2.45411 8.72286 107.75268 -64.13129 8.44451 -87.53212 3.02688 4.01747 43.16942 -4.1604 -3.32284 -21.69977 -7.08328 -3.67235 -2.5813 48.47648 9.60886 -0.67174 -27.0193 -7.28032 2.89927 2.17027
-0.00074 -0.00019 -8e-05 24.18589 -28.7726 -7.5706 48.80031 2.97482 -3.21722 -16.41146 -1.95223 -0.16553 35.31961 -107.59691 64.15289 9.90024 84.46099 7.01644 -2.47815 8.81315 107.76214 -64.06682 8.45184 -87.53162 2.98451 3.99448 43.17909 -4.17647 -3.35444 -21.70839 -7.08382 -3.67089 -2.58078 48.4925 9.58986 -0.71169 -27.02497 -7.28148 2.9021 2.17156
-0.00094 -0.00022 -5e-05 24.19917 -28.76553 -7.57115 48.77351 2.96922 -3.21584 -16.41318 -1.94999 -0.16596 35.39501 -107.6394 64.22093 9.96096 84.44366 6.92261 -2.49814 8.83126 107.7925 -64.28968 8.45798 -87.53283 2.93277 3.99884 43.18569 -4.18097 -3.34544 -21.71636 -7.08568 -3.67425 -2.58334 48.50272 9.57565 -0.74864 -27.02934 -7.28249 2.9055 2.1729
-0.00122 -0.00027 -6e-05 24.22033 -28.76466 -7.56987 48.74465 2.95817 -3.22109 -16.42289 -1.95212 -0.16644 35.63948 -107.69236 64.1008 10.16396 84.42542 6.69975 -2.5273 9.01399 107.77541 -63.89166 8.47216 -87.53074 2.89859 3.94579 43.20026 -4.2093 -3.41661 -21.72586 -7.08511 -3.66831 -2.57999 48.52718 9.55017 -0.79478 -27.03658 -7.28384 2.90785 2.17423
-0.0017 -0.00033 -0.00015 24.26202 -28.77906 -7.56294 48.70962 2.93389 -3.24511 -16.44959 -1.96739 -0.16705 36.21454 -107.78388 63.51837 10.68547 84.40339 6.09179 -2.60171 9.5601 107.64332 -61.89932 8.46284 -87.51551 2.9143 3.74408 43.23331 -4.30561 -3.73033 -21.73923 -7.07694 -3.63432 -2.55868 48.58713 9.49433 -0.87057 -27.05133 -7.28632 2.90785 2.176
-0.00225 -0.00039 -0.00028 24.31153 -28.79973 -7.5542 48.67282 2.90391 -3.27532 -16.48489 -1.98671 -0.16772 36.98056 -107.88343 62.74067 11.3608 84.38075 5.36092 -2.68141 10.28803 107.46122 -59.26924 8.47083 -87.49731 2.94803 3.48311 43.27454 -4.42553 -4.12143 -21.75414 -7.06641 -3.59124 -2.53164 48.66144 9.42739 -0.95366 -27.06901 -7.28908 2.90662 2.17764
-0.00278 -0.00046 -0.00041 24.35748 -28.81822 -7.54648 48.63756 2.87572 -3.30186 -16.51894 -2.00309 -0.16837 37.74154 -107.9723 62.01227 12.00806 84.36053 4.71057 -2.74221 10.98915 107.29311 -56.85199 8.49988 -87.48377 2.97405 3.24151 43.31355 -4.53321 -4.46484 -21.76847 -7.05738 -3.55347 -2.50807 48.73042 9.36604 -1.02779 -27.08551 -7.29153 2.90543 2.17894
-0.00326 -0.00052 -0.00049 24.40349 -28.83412 -7.53792 48.59913 2.85101 -3.33246 -16.54209 -2.02409 -0.169 38.16201 -108.09198 61.43474 12.48022 84.33259 3.95794 -2.8694 11.45317 107.16174 -54.73387 8.40383 -87.45804 2.99806 3.02939 43.34669 -4.64719 -4.86121 -21.78238 -7.04657 -3.51069 -2.48086 48.79478 9.3025 -1.1257 -27.10135 -7.29479 2.90643 2.18193
-0.00386 -0.00059 -0.00068 24.45132 -28.85672 -7.53072 48.5669 2.81751 -3.35566 -16.58972 -2.0365 -0.16969 39.3328 -108.14817 60.51582 13.35296 84.31876 3.38597 -2.86405 12.45653 106.94188 -51.87241 8.57618 -87.45476 3.03025 2.74494 43.39362 -4.75372 -5.16526 -21.79746 -7.03893 -3.47628 -2.4599 48.87188 9.24059 -1.17638 -27.11929 -7.2964 2.9026 2.18138
-0.00476 -0.00071 -0.00113 24.50086 -28.89747 -7.5272 48.55202 2.76307 -3.35971 -16.70458 -2.02337 -0.17055 42.55122 -108.03893 58.53705 15.29774 84.36065 3.37247 -2.44959 14.88157 106.49113 -46.85132 9.45348 -87.53257 3.0837 2.24838 43.47904 -4.8334 -5.19975 -21.81594 -7.04037 -3.4663 -2.45728 48.98232 9.18886 -1.08866 -27.14205 -7.29363 2.88541 2.1708
-0.00577 -0.00084 -0.00169 24.55219 -28.94448 -7.52524 48.54341 2.69962 -3.35547 -16.84336 -2.00162 -0.17149 46.50734 -107.86471 56.25134 17.64094 84.41398 3.53889 -1.90803 17.84595 105.95259 -41.15311 10.60598 -87.62913 3.14393 1.68643 43.57754 -4.90486 -5.13785 -21.83547 -7.04515 -3.46522 -2.46121 49.10473 9.13853 -0.9546 -27.16689 -7.28914 2.86349 2.15672
-0.00672 -0.00097 -0.00222 24.60361 -28.9879 -7.52284 48.53214 2.63904 -3.35328 -16.97014 -1.98429 -0.17241 50.11882 -107.71063 54.21565 19.79737 84.45083 3.60469 -1.45361 20.5803 105.45388 -35.93813 11.65376 -87.70567 3.19945 1.1716 43.66843 -4.9804 -5.11737 -21.85413 -7.04855 -3.46062 -2.46235 49.22053 9.08575 -0.84531 -27.19091 -7.28527 2.8439 2.14439
-0.00768 -0.0011 -0.00267 24.65152 -29.03483 -7.51908 48.5203 2.58343 -3.35889 -17.10231 -1.96486 -0.17326 53.80278 -107.59064 51.71056 21.97732 84.53404 3.7489 -0.88053 23.26315 104.95491 -29.96152 12.61736 -87.83269 3.26371 0.57982 43.76671 -5.05529 -5.10985 -21.87441 -7.05122 -3.45345 -2.46248 49.34177 9.04061 -0.71916 -27.2144 -7.28209 2.82335 2.1313
